<?xml version="1.0"?>
<svg width="207" height="49" xmlns="http://www.w3.org/2000/svg" xmlns:svg="http://www.w3.org/2000/svg">
 <g class="layer">
  <title>Layer 1</title>
  <path d="m23,3c12.7,0 23,10.3 23,23l0,16.1c0,1.83 -0.73,3.59 -2.02,4.88c-1.3,1.29 -3.05,2.02 -4.88,2.02l-14.95,0l0,-10.09c0,-2.3 0.14,-4.69 1.35,-6.65c0.86,-1.4 2.02,-2.6 3.39,-3.52c1.37,-0.92 2.92,-1.53 4.55,-1.8l0.44,-0.07c0.18,-0.06 0.34,-0.18 0.45,-0.33c0.11,-0.16 0.17,-0.35 0.17,-0.54c0,-0.19 -0.06,-0.38 -0.17,-0.54c-0.11,-0.15 -0.27,-0.27 -0.45,-0.33l-0.44,-0.07c-2.38,-0.39 -4.58,-1.52 -6.28,-3.22c-1.7,-1.7 -2.83,-3.9 -3.22,-6.28l-0.07,-0.44c-0.06,-0.18 -0.18,-0.34 -0.34,-0.45c-0.15,-0.11 -0.34,-0.17 -0.53,-0.17c-0.19,0 -0.38,0.06 -0.54,0.17c-0.15,0.11 -0.27,0.27 -0.33,0.45l-0.07,0.44c-0.27,1.63 -0.88,3.18 -1.8,4.55c-0.92,1.37 -2.12,2.53 -3.52,3.39c-1.96,1.21 -4.35,1.35 -6.65,1.35l-10.06,0c0.6,-12.17 10.65,-21.85 22.97,-21.85z" fill="#5F6FFF" id="svg_1"/>
  <path d="m0,27.15l10.09,0c2.3,0 4.69,0.14 6.65,1.35c1.53,0.94 2.82,2.23 3.76,3.76c1.21,1.96 1.35,4.35 1.35,6.65l0,10.09l-14.95,0c-1.83,0 -3.59,-0.73 -4.88,-2.02c-1.29,-1.29 -2.02,-3.05 -2.02,-4.88l0,-14.95zm46,-21.85c0,0.61 -0.24,1.2 -0.67,1.63c-0.43,0.43 -1.02,0.67 -1.63,0.67c-0.61,0 -1.19,-0.24 -1.63,-0.67c-0.43,-0.43 -0.67,-1.02 -0.67,-1.63c0,-0.61 0.24,-1.2 0.67,-1.63c0.44,-0.43 1.02,-0.67 1.63,-0.67c0.61,0 1.2,0.24 1.63,0.67c0.43,0.43 0.67,1.02 0.67,1.63z" fill="#5F6FFF" id="svg_2"/>
  <path d="m59.98,46l0,-1.45l2.15,0c0.54,0 1.02,-0.11 1.43,-0.34c0.4,-0.23 0.72,-0.55 0.94,-0.97c0.24,-0.42 0.35,-0.91 0.35,-1.48c0,-0.55 -0.11,-1.03 -0.35,-1.44c-0.23,-0.41 -0.55,-0.73 -0.96,-0.96c-0.4,-0.23 -0.88,-0.34 -1.41,-0.34l-2.19,0l0,-1.46l2.21,0c0.63,0 1.2,0.11 1.73,0.32c0.54,0.2 1,0.5 1.39,0.88c0.4,0.38 0.71,0.82 0.93,1.34c0.22,0.51 0.33,1.07 0.33,1.68c0,0.6 -0.11,1.17 -0.33,1.69c-0.22,0.51 -0.52,0.96 -0.92,1.34c-0.39,0.38 -0.85,0.67 -1.39,0.88c-0.53,0.21 -1.1,0.31 -1.71,0.31l-2.2,0zm-1.12,0l0,-8.44l1.64,0l0,8.44l-1.64,0zm11.22,0.12c-0.52,0 -1,-0.13 -1.42,-0.4c-0.43,-0.26 -0.76,-0.62 -1,-1.08c-0.24,-0.45 -0.36,-0.96 -0.36,-1.53c0,-0.58 0.12,-1.09 0.36,-1.55c0.24,-0.46 0.57,-0.82 1,-1.08c0.42,-0.26 0.9,-0.4 1.42,-0.4c0.42,0 0.79,0.09 1.12,0.26c0.33,0.16 0.59,0.4 0.78,0.7c0.2,0.3 0.31,0.64 0.32,1.01l0,2.09c-0.01,0.38 -0.12,0.72 -0.32,1.02c-0.19,0.3 -0.45,0.53 -0.78,0.71c-0.33,0.17 -0.7,0.25 -1.12,0.25zm0.29,-1.45c0.44,0 0.8,-0.15 1.07,-0.43c0.27,-0.3 0.41,-0.68 0.41,-1.14c0,-0.31 -0.07,-0.58 -0.19,-0.81c-0.12,-0.24 -0.3,-0.42 -0.52,-0.55c-0.22,-0.14 -0.47,-0.2 -0.77,-0.2c-0.29,0 -0.54,0.06 -0.77,0.2c-0.21,0.13 -0.38,0.31 -0.51,0.55c-0.12,0.23 -0.18,0.5 -0.18,0.81c0,0.31 0.06,0.58 0.18,0.82c0.13,0.24 0.3,0.42 0.51,0.56c0.23,0.12 0.48,0.19 0.77,0.19zm1.39,1.33l0,-1.56l0.26,-1.42l-0.26,-1.39l0,-1.43l1.56,0l0,5.8l-1.56,0zm4.95,0.13c-0.33,0 -0.65,-0.04 -0.97,-0.13c-0.32,-0.09 -0.6,-0.21 -0.87,-0.36c-0.26,-0.16 -0.49,-0.35 -0.68,-0.58l0.93,-0.94c0.2,0.22 0.44,0.39 0.7,0.5c0.26,0.11 0.56,0.17 0.88,0.17c0.25,0 0.44,-0.04 0.57,-0.11c0.14,-0.07 0.21,-0.18 0.21,-0.32c0,-0.16 -0.08,-0.29 -0.22,-0.38c-0.14,-0.08 -0.32,-0.16 -0.54,-0.21c-0.22,-0.07 -0.46,-0.13 -0.71,-0.21c-0.24,-0.08 -0.47,-0.18 -0.69,-0.3c-0.23,-0.12 -0.41,-0.3 -0.56,-0.51c-0.13,-0.23 -0.2,-0.51 -0.2,-0.87c0,-0.36 0.09,-0.68 0.26,-0.96c0.19,-0.27 0.45,-0.48 0.78,-0.63c0.34,-0.15 0.74,-0.23 1.19,-0.23c0.48,0 0.91,0.08 1.3,0.25c0.39,0.17 0.71,0.42 0.97,0.76l-0.95,0.95c-0.17,-0.22 -0.37,-0.38 -0.6,-0.47c-0.21,-0.1 -0.45,-0.15 -0.71,-0.15c-0.23,0 -0.41,0.04 -0.54,0.11c-0.12,0.07 -0.18,0.17 -0.18,0.3c0,0.15 0.07,0.26 0.21,0.34c0.14,0.08 0.33,0.15 0.55,0.21c0.22,0.06 0.46,0.13 0.7,0.21c0.24,0.07 0.48,0.17 0.69,0.31c0.23,0.14 0.41,0.32 0.54,0.54c0.15,0.22 0.22,0.51 0.22,0.86c0,0.57 -0.21,1.02 -0.61,1.36c-0.41,0.33 -0.97,0.49 -1.67,0.49zm7.24,-0.13l0,-3.32c0,-0.35 -0.11,-0.63 -0.33,-0.84c-0.21,-0.22 -0.49,-0.33 -0.84,-0.33c-0.22,0 -0.42,0.05 -0.6,0.15c-0.17,0.09 -0.31,0.23 -0.42,0.4c-0.09,0.18 -0.14,0.38 -0.14,0.62l-0.61,-0.32c0,-0.45 0.09,-0.85 0.29,-1.18c0.19,-0.35 0.45,-0.62 0.79,-0.81c0.34,-0.19 0.73,-0.29 1.17,-0.29c0.44,0 0.83,0.1 1.17,0.29c0.34,0.19 0.61,0.46 0.8,0.79c0.19,0.34 0.29,0.73 0.29,1.17l0,3.67l-1.57,0zm-3.9,0l0,-8.68l1.57,0l0,8.68l-1.57,0zm9.95,0.12c-0.41,0 -0.79,-0.09 -1.13,-0.26c-0.33,-0.18 -0.6,-0.42 -0.8,-0.72c-0.2,-0.31 -0.31,-0.65 -0.32,-1.02l0,-2.07c0.01,-0.37 0.12,-0.71 0.32,-1.01c0.21,-0.3 0.48,-0.54 0.82,-0.7c0.33,-0.17 0.7,-0.26 1.11,-0.26c0.54,0 1.02,0.14 1.44,0.4c0.43,0.26 0.76,0.62 1,1.08c0.25,0.46 0.37,0.97 0.37,1.55c0,0.57 -0.12,1.08 -0.37,1.53c-0.24,0.46 -0.57,0.82 -1,1.08c-0.42,0.27 -0.9,0.4 -1.44,0.4zm-0.26,-1.45c0.29,0 0.54,-0.07 0.75,-0.19c0.23,-0.14 0.4,-0.32 0.52,-0.56c0.13,-0.24 0.19,-0.51 0.19,-0.82c0,-0.31 -0.06,-0.58 -0.19,-0.81c-0.12,-0.24 -0.29,-0.42 -0.52,-0.55c-0.22,-0.14 -0.48,-0.2 -0.76,-0.2c-0.29,0 -0.55,0.06 -0.77,0.2c-0.22,0.13 -0.39,0.31 -0.52,0.55c-0.12,0.23 -0.18,0.5 -0.18,0.81c0,0.31 0.06,0.58 0.18,0.82c0.13,0.24 0.31,0.42 0.53,0.56c0.22,0.12 0.48,0.19 0.77,0.19zm-2.95,1.33l0,-8.68l1.57,0l0,4.31l-0.27,1.39l0.26,1.42l0,1.56l-1.56,0zm9.77,0.12c-0.58,0 -1.11,-0.13 -1.58,-0.4c-0.46,-0.27 -0.84,-0.63 -1.12,-1.09c-0.27,-0.46 -0.4,-0.98 -0.4,-1.55c0,-0.56 0.13,-1.07 0.4,-1.52c0.28,-0.46 0.65,-0.82 1.12,-1.08c0.47,-0.27 1,-0.41 1.57,-0.41c0.59,0 1.12,0.14 1.59,0.41c0.47,0.26 0.84,0.62 1.11,1.08c0.27,0.45 0.41,0.96 0.41,1.52c0,0.57 -0.14,1.09 -0.41,1.55c-0.27,0.46 -0.64,0.82 -1.11,1.09c-0.47,0.27 -0.99,0.4 -1.58,0.4zm-0.01,-1.46c0.3,0 0.56,-0.07 0.78,-0.2c0.23,-0.13 0.41,-0.32 0.53,-0.55c0.13,-0.24 0.19,-0.51 0.19,-0.81c0,-0.31 -0.06,-0.58 -0.19,-0.81c-0.13,-0.23 -0.3,-0.41 -0.53,-0.54c-0.22,-0.13 -0.48,-0.2 -0.78,-0.2c-0.29,0 -0.54,0.07 -0.77,0.2c-0.22,0.13 -0.4,0.31 -0.52,0.54c-0.13,0.23 -0.2,0.5 -0.2,0.81c0,0.3 0.07,0.57 0.2,0.81c0.12,0.23 0.3,0.42 0.52,0.55c0.23,0.13 0.48,0.2 0.77,0.2zm6.55,1.46c-0.53,0 -1.01,-0.13 -1.43,-0.4c-0.42,-0.26 -0.76,-0.62 -1,-1.08c-0.24,-0.45 -0.36,-0.96 -0.36,-1.53c0,-0.58 0.12,-1.09 0.36,-1.55c0.24,-0.46 0.58,-0.82 1,-1.08c0.42,-0.26 0.9,-0.4 1.43,-0.4c0.41,0 0.79,0.09 1.11,0.26c0.33,0.16 0.59,0.4 0.78,0.7c0.2,0.3 0.31,0.64 0.33,1.01l0,2.09c-0.02,0.38 -0.13,0.72 -0.33,1.02c-0.19,0.3 -0.45,0.53 -0.78,0.71c-0.32,0.17 -0.7,0.25 -1.11,0.25zm0.29,-1.45c0.44,0 0.79,-0.15 1.06,-0.43c0.27,-0.3 0.41,-0.68 0.41,-1.14c0,-0.31 -0.06,-0.58 -0.19,-0.81c-0.12,-0.24 -0.29,-0.42 -0.52,-0.55c-0.21,-0.14 -0.47,-0.2 -0.76,-0.2c-0.29,0 -0.55,0.06 -0.77,0.2c-0.22,0.13 -0.39,0.31 -0.52,0.55c-0.12,0.23 -0.18,0.5 -0.18,0.81c0,0.31 0.06,0.58 0.18,0.82c0.13,0.24 0.3,0.42 0.52,0.56c0.22,0.12 0.48,0.19 0.77,0.19zm1.39,1.33l0,-1.56l0.25,-1.42l-0.25,-1.39l0,-1.43l1.56,0l0,5.8l-1.56,0zm2.95,0l0,-5.8l1.57,0l0,5.8l-1.57,0zm1.57,-3.2l-0.61,-0.41c0.07,-0.71 0.28,-1.27 0.62,-1.68c0.35,-0.42 0.84,-0.63 1.49,-0.63c0.28,0 0.53,0.05 0.76,0.15c0.22,0.09 0.42,0.23 0.61,0.44l-0.99,1.13c-0.09,-0.1 -0.19,-0.17 -0.32,-0.22c-0.12,-0.04 -0.26,-0.07 -0.42,-0.07c-0.34,0 -0.61,0.11 -0.83,0.33c-0.21,0.2 -0.31,0.52 -0.31,0.96zm5.7,3.32c-0.53,0 -1.01,-0.13 -1.44,-0.4c-0.42,-0.26 -0.76,-0.62 -1,-1.08c-0.25,-0.45 -0.37,-0.96 -0.37,-1.53c0,-0.58 0.12,-1.09 0.37,-1.55c0.24,-0.46 0.58,-0.82 0.99,-1.08c0.42,-0.26 0.91,-0.4 1.45,-0.4c0.42,0 0.79,0.09 1.12,0.26c0.33,0.16 0.6,0.4 0.8,0.7c0.21,0.3 0.32,0.64 0.34,1.01l0,2.07c-0.02,0.37 -0.12,0.71 -0.32,1.02c-0.21,0.3 -0.47,0.54 -0.81,0.72c-0.33,0.17 -0.71,0.26 -1.13,0.26zm0.27,-1.45c0.29,0 0.55,-0.07 0.76,-0.19c0.23,-0.14 0.4,-0.32 0.52,-0.56c0.13,-0.24 0.19,-0.51 0.19,-0.82c0,-0.31 -0.06,-0.58 -0.19,-0.81c-0.12,-0.24 -0.29,-0.42 -0.52,-0.55c-0.21,-0.14 -0.46,-0.2 -0.75,-0.2c-0.3,0 -0.56,0.06 -0.78,0.2c-0.22,0.14 -0.39,0.32 -0.52,0.55c-0.12,0.23 -0.18,0.5 -0.18,0.81c0,0.31 0.06,0.58 0.18,0.82c0.13,0.24 0.31,0.42 0.53,0.56c0.22,0.12 0.48,0.19 0.76,0.19zm2.95,1.33l-1.56,0l0,-1.56l0.25,-1.42l-0.26,-1.39l0,-4.31l1.57,0l0,8.68zm5.1,-3.13l0,-1.33l1.96,0c0.25,0 0.49,-0.06 0.69,-0.16c0.21,-0.1 0.38,-0.25 0.5,-0.44c0.12,-0.2 0.18,-0.44 0.18,-0.72c0,-0.28 -0.06,-0.51 -0.18,-0.71c-0.12,-0.2 -0.29,-0.35 -0.5,-0.46c-0.2,-0.1 -0.44,-0.15 -0.69,-0.15l-1.96,0l0,-1.34l2.13,0c0.53,0 1.01,0.11 1.44,0.33c0.43,0.21 0.77,0.52 1.02,0.92c0.24,0.39 0.37,0.86 0.37,1.41c0,0.54 -0.13,1.01 -0.37,1.41c-0.25,0.39 -0.59,0.7 -1.02,0.91c-0.43,0.22 -0.91,0.33 -1.44,0.33l-2.13,0zm-1.2,3.13l0,-8.44l1.63,0l0,8.44l-1.63,0zm9.38,0.12c-0.53,0 -1,-0.13 -1.43,-0.4c-0.42,-0.26 -0.75,-0.62 -0.99,-1.08c-0.24,-0.45 -0.36,-0.96 -0.36,-1.53c0,-0.58 0.12,-1.09 0.36,-1.55c0.24,-0.46 0.57,-0.82 0.99,-1.08c0.43,-0.26 0.9,-0.4 1.43,-0.4c0.42,0 0.79,0.09 1.12,0.26c0.33,0.16 0.59,0.4 0.78,0.7c0.2,0.3 0.31,0.64 0.32,1.01l0,2.09c-0.01,0.38 -0.12,0.72 -0.32,1.02c-0.19,0.3 -0.45,0.53 -0.78,0.71c-0.33,0.17 -0.7,0.25 -1.12,0.25zm0.29,-1.45c0.44,0 0.8,-0.15 1.07,-0.43c0.27,-0.3 0.41,-0.68 0.41,-1.14c0,-0.31 -0.07,-0.58 -0.2,-0.81c-0.11,-0.24 -0.29,-0.42 -0.51,-0.55c-0.22,-0.14 -0.47,-0.2 -0.77,-0.2c-0.29,0 -0.54,0.06 -0.77,0.2c-0.21,0.13 -0.39,0.31 -0.51,0.55c-0.12,0.23 -0.18,0.5 -0.18,0.81c0,0.31 0.06,0.58 0.18,0.82c0.12,0.24 0.3,0.42 0.51,0.56c0.23,0.12 0.48,0.19 0.77,0.19zm1.39,1.33l0,-1.56l0.26,-1.42l-0.26,-1.39l0,-1.43l1.56,0l0,5.8l-1.56,0zm6.85,0l0,-3.32c0,-0.35 -0.1,-0.63 -0.32,-0.84c-0.22,-0.22 -0.5,-0.33 -0.84,-0.33c-0.22,0 -0.42,0.05 -0.6,0.15c-0.18,0.09 -0.32,0.23 -0.42,0.4c-0.1,0.18 -0.14,0.38 -0.14,0.62l-0.62,-0.32c0,-0.45 0.1,-0.85 0.29,-1.18c0.2,-0.35 0.47,-0.62 0.82,-0.81c0.35,-0.19 0.75,-0.29 1.19,-0.29c0.42,0 0.8,0.11 1.14,0.33c0.33,0.21 0.6,0.48 0.79,0.83c0.19,0.33 0.28,0.7 0.28,1.09l0,3.67l-1.57,0zm-3.9,0l0,-5.8l1.58,0l0,5.8l-1.58,0zm9.51,0.12c-0.6,0 -1.14,-0.13 -1.62,-0.38c-0.47,-0.27 -0.84,-0.63 -1.12,-1.08c-0.28,-0.46 -0.41,-0.98 -0.41,-1.56c0,-0.58 0.13,-1.09 0.39,-1.54c0.28,-0.46 0.64,-0.82 1.11,-1.08c0.46,-0.27 0.98,-0.41 1.55,-0.41c0.56,0 1.05,0.13 1.47,0.39c0.43,0.24 0.77,0.59 1.01,1.03c0.25,0.43 0.37,0.92 0.37,1.47c0,0.11 -0.01,0.22 -0.02,0.33c-0.01,0.1 -0.03,0.22 -0.06,0.36l-4.87,0.01l0,-1.18l4.14,-0.01l-0.64,0.49c-0.02,-0.34 -0.08,-0.63 -0.19,-0.86c-0.11,-0.23 -0.26,-0.41 -0.47,-0.53c-0.2,-0.13 -0.45,-0.19 -0.74,-0.19c-0.32,0 -0.59,0.07 -0.82,0.22c-0.23,0.13 -0.41,0.33 -0.54,0.58c-0.12,0.25 -0.18,0.55 -0.18,0.89c0,0.35 0.06,0.66 0.19,0.93c0.14,0.25 0.33,0.45 0.58,0.6c0.25,0.13 0.53,0.2 0.86,0.2c0.3,0 0.57,-0.05 0.81,-0.14c0.24,-0.11 0.44,-0.26 0.62,-0.46l0.92,0.92c-0.28,0.33 -0.62,0.58 -1.03,0.75c-0.4,0.17 -0.83,0.25 -1.31,0.25zm3.72,-0.12l0,-8.68l1.58,0l0,8.68l-1.58,0z" fill="#5F5F5F" id="svg_4"/>
  <text fill="#000000" font-family="Sans-serif" font-size="24" font-weight="bold" id="svg_6" stroke-width="0" text-anchor="middle" x="127.54" xml:space="preserve" y="27.2">Unity Health</text>
 </g>
</svg>