<?xml version="1.0"?>
<svg width="217" height="46" xmlns="http://www.w3.org/2000/svg" xmlns:svg="http://www.w3.org/2000/svg">
 <g class="layer">
  <title>Layer 1</title>
  <path d="m23,0c12.7,0 23,10.3 23,23l0,16.1c0,1.83 -0.73,3.59 -2.02,4.88c-1.3,1.29 -3.05,2.02 -4.88,2.02l-14.95,0l0,-10.09c0,-2.3 0.14,-4.69 1.35,-6.65c0.86,-1.4 2.02,-2.6 3.39,-3.52c1.37,-0.92 2.92,-1.53 4.55,-1.8l0.44,-0.07c0.18,-0.06 0.34,-0.18 0.45,-0.33c0.11,-0.16 0.17,-0.35 0.17,-0.54c0,-0.19 -0.06,-0.38 -0.17,-0.54c-0.11,-0.15 -0.27,-0.27 -0.45,-0.33l-0.44,-0.07c-2.38,-0.39 -4.58,-1.52 -6.28,-3.22c-1.7,-1.7 -2.83,-3.9 -3.22,-6.28l-0.07,-0.44c-0.06,-0.18 -0.18,-0.34 -0.34,-0.45c-0.15,-0.11 -0.34,-0.17 -0.53,-0.17c-0.19,0 -0.38,0.06 -0.54,0.17c-0.15,0.11 -0.27,0.27 -0.33,0.45l-0.07,0.44c-0.27,1.63 -0.88,3.18 -1.8,4.55c-0.92,1.37 -2.12,2.53 -3.52,3.39c-1.96,1.21 -4.35,1.35 -6.65,1.35l-10.06,0c0.6,-12.17 10.65,-21.85 22.97,-21.85z" fill="#5F6FFF" id="svg_1" transform="matrix(1 0 0 1 0 0)"/>
  <path d="m0,24.15l10.09,0c2.3,0 4.69,0.14 6.65,1.35c1.53,0.94 2.82,2.23 3.76,3.76c1.21,1.96 1.35,4.35 1.35,6.65l0,10.09l-14.95,0c-1.83,0 -3.59,-0.73 -4.88,-2.02c-1.29,-1.29 -2.02,-3.05 -2.02,-4.88l0,-14.95zm46,-21.85c0,0.61 -0.24,1.2 -0.67,1.63c-0.43,0.43 -1.02,0.67 -1.63,0.67c-0.61,0 -1.19,-0.24 -1.63,-0.67c-0.43,-0.43 -0.67,-1.02 -0.67,-1.63c0,-0.61 0.24,-1.2 0.67,-1.63c0.44,-0.43 1.02,-0.67 1.63,-0.67c0.61,0 1.2,0.24 1.63,0.67c0.43,0.43 0.67,1.02 0.67,1.63z" fill="#5F6FFF" id="svg_2"/>
  <text fill="#000000" font-family="Sans-serif" font-size="26" font-weight="bold" id="svg_5" stroke-width="0" text-anchor="middle" x="130.91" xml:space="preserve" y="31.3">Unity Health</text>
 </g>
</svg>